<svg id="Слой_1" data-name="Слой 1" xmlns="http://www.w3.org/2000/svg" viewBox="0 0 31.3 31.3">
  <defs>
    <style>
      .cls-1 {
        fill: #191945;
      }
    </style>
  </defs>
  <polygon class="cls-1" points="20.11 23.78 20.11 23.78 20.11 23.78 20.11 23.78"/>
  <path class="cls-1" d="M34.21,26.05h0A9,9,0,0,0,34.27,25,9.27,9.27,0,0,0,25,15.73a9.11,9.11,0,0,0-1.05.06c2.69,2.24,4.82,4.34,5.37,4.89S32,23.36,34.21,26.05Z" transform="translate(-9.35 -9.35)"/>
  <path class="cls-1" d="M15.79,24h0A9,9,0,0,0,15.73,25,9.27,9.27,0,0,0,25,34.27a9.11,9.11,0,0,0,1.05-.06c-2.69-2.24-4.82-4.34-5.37-4.89S18,26.64,15.79,24Z" transform="translate(-9.35 -9.35)"/>
  <path class="cls-1" d="M29.47,33.13c-1.55-2,.15-7.91-2.27-10.33a70.73,70.73,0,0,0-6.65-5.91h0c.19-.89.85-1.54,0,0,1.55,2-.17,7.89,2.25,10.31" transform="translate(-9.35 -9.35)"/>
  <path class="cls-1" d="M15.79,24a9.26,9.26,0,0,1,1.08-3.42c-3.22-4.15-4.64-7.18-4.54-8.2,1-.1,4,1.31,8.2,4.54h0A9.26,9.26,0,0,1,24,15.79c-4.7-3.92-11.11-8.29-13.78-5.62s1.7,9.08,5.62,13.78Z" transform="translate(-9.35 -9.35)"/>
  <path class="cls-1" d="M34.21,26.05a9.26,9.26,0,0,1-1.08,3.42c3.22,4.15,4.64,7.18,4.54,8.2-1,.1-4.06-1.32-8.2-4.54h0a9.21,9.21,0,0,1-3.41,1.08c3.69,3.08,8.44,6.44,11.6,6.44a3,3,0,0,0,2.18-.82C42.5,37.16,38.13,30.75,34.21,26.05Z" transform="translate(-9.35 -9.35)"/>
  <polygon class="cls-1" points="6.44 14.6 6.44 14.6 6.44 14.6 6.44 14.6"/>
  <path class="cls-1" d="M28.73,32.89l-.44-.2a39.22,39.22,0,0,1-5.56-3.08l-.8-.54A44.68,44.68,0,0,1,15.79,24c2.24,2.69,4.34,4.82,4.89,5.37s2.68,2.65,5.37,4.89a9.21,9.21,0,0,0,3.41-1.08A5.42,5.42,0,0,1,28.73,32.89Z" transform="translate(-9.35 -9.35)"/>
  <path class="cls-1" d="M20.54,16.88h0a41,41,0,0,1,13.66,9.17c-2.24-2.69-4.34-4.82-4.89-5.37S26.64,18,24,15.79a9.26,9.26,0,0,0-3.42,1.08Z" transform="translate(-9.35 -9.35)"/>
  <polygon class="cls-1" points="6.44 14.6 6.44 14.6 6.44 14.6 6.44 14.6"/>
  <polygon class="cls-1" points="6.44 14.6 6.44 14.6 6.44 14.6 6.44 14.6 6.44 14.6 6.44 14.6"/>
  <polygon class="cls-1" points="6.44 14.6 6.44 14.6 6.44 14.6 6.44 14.6"/>
</svg>
